<svg id="svg" version="1.1" xmlns="http://www.w3.org/2000/svg" xmlns:xlink="http://www.w3.org/1999/xlink" width="400" height="400" viewBox="0, 0, 400,400"><g id="svgg"><path id="path0" d="M180.800 29.327 C 178.270 29.775,176.086 30.311,175.947 30.518 C 175.560 31.094,175.816 49.770,177.265 126.709 C 177.583 143.592,177.608 152.152,177.341 152.419 C 177.121 152.639,175.424 153.006,173.571 153.235 C 171.717 153.464,169.030 153.809,167.600 154.001 C 160.086 155.014,157.269 155.347,156.000 155.372 L 154.600 155.400 154.600 136.836 L 154.600 118.272 148.800 115.115 C 145.610 113.379,141.316 111.055,139.259 109.950 C 137.201 108.844,134.951 107.623,134.259 107.235 C 133.566 106.848,131.442 105.689,129.538 104.661 L 126.077 102.792 123.138 103.246 C 121.522 103.495,119.480 103.812,118.600 103.950 L 117.000 104.200 117.155 132.255 C 117.308 159.704,117.294 160.316,116.538 160.556 C 116.113 160.691,112.983 161.153,109.582 161.583 C 101.433 162.614,85.769 164.644,80.000 165.418 C 72.880 166.372,63.224 167.616,60.903 167.876 C 57.872 168.216,57.974 167.766,58.094 180.249 L 58.200 191.400 61.200 192.908 C 63.676 194.152,64.479 194.376,65.800 194.189 C 66.680 194.065,68.795 193.792,70.500 193.582 C 77.100 192.769,80.304 192.363,83.000 192.000 C 84.540 191.793,87.240 191.445,89.000 191.227 C 90.760 191.009,93.730 190.633,95.600 190.390 C 100.245 189.787,103.297 189.401,109.400 188.643 C 112.260 188.287,115.174 187.921,115.875 187.828 C 117.923 187.556,117.879 186.984,118.164 217.800 C 118.313 233.860,118.608 260.590,118.820 277.200 C 119.721 347.768,119.987 367.508,120.249 383.300 L 120.527 400.000 136.264 400.000 L 152.000 400.000 152.015 396.900 C 152.023 395.195,152.285 368.870,152.598 338.400 C 152.911 307.930,153.367 260.860,153.611 233.800 C 153.854 206.740,154.126 184.231,154.215 183.779 C 154.383 182.920,154.644 182.865,164.800 181.555 C 166.450 181.342,169.060 181.001,170.600 180.797 C 176.282 180.044,177.538 179.977,177.807 180.411 C 178.088 180.865,178.396 196.548,179.366 259.800 C 179.694 281.140,180.068 303.370,180.197 309.200 C 180.487 322.271,181.589 390.745,181.595 396.100 L 181.600 400.000 196.953 400.000 L 212.305 400.000 212.552 341.700 C 212.687 309.635,212.910 259.146,213.047 229.502 L 213.296 175.603 214.748 175.226 C 215.547 175.018,218.090 174.648,220.400 174.404 C 222.710 174.160,225.770 173.795,227.200 173.593 C 240.232 171.751,240.719 171.725,240.982 172.851 C 241.204 173.801,241.681 196.228,242.407 239.800 C 242.620 252.560,242.974 271.730,243.195 282.400 C 243.925 317.766,245.189 388.509,245.195 394.300 L 245.200 400.000 260.399 400.000 L 275.599 400.000 275.699 283.700 L 275.800 167.400 279.400 166.919 C 281.380 166.655,284.440 166.243,286.200 166.004 C 287.960 165.765,291.560 165.298,294.200 164.965 C 296.840 164.631,300.260 164.199,301.800 164.004 C 303.340 163.809,306.130 163.458,308.000 163.225 C 315.843 162.247,318.336 161.931,320.800 161.600 C 326.533 160.831,335.807 159.649,339.200 159.255 L 341.400 159.000 341.506 146.923 L 341.612 134.845 339.150 133.402 L 336.688 131.959 331.844 132.595 C 329.180 132.945,325.740 133.397,324.200 133.600 C 322.660 133.803,319.150 134.245,316.400 134.583 C 313.650 134.920,310.230 135.372,308.800 135.588 C 307.370 135.804,304.670 136.170,302.800 136.403 C 299.106 136.862,294.884 137.420,290.800 137.991 C 289.370 138.190,286.400 138.553,284.200 138.798 C 282.000 139.042,279.313 139.416,278.229 139.630 C 275.465 140.175,275.618 141.256,275.504 120.405 L 275.400 101.441 266.600 96.335 C 248.192 85.653,249.821 86.387,246.306 87.189 C 245.368 87.403,243.474 87.788,242.097 88.045 L 239.594 88.511 239.792 93.955 C 239.901 96.950,240.085 107.680,240.201 117.800 C 240.316 127.920,240.509 137.820,240.629 139.800 C 240.755 141.867,240.682 143.641,240.459 143.967 C 239.889 144.798,214.390 148.147,213.731 147.477 C 213.373 147.113,213.342 134.970,213.600 96.400 C 213.858 57.825,213.827 45.695,213.469 45.357 C 213.211 45.113,211.200 43.830,209.000 42.506 C 206.800 41.182,203.470 39.154,201.600 38.000 C 184.617 27.517,186.524 28.313,180.800 29.327 " stroke="none" fill="#fafafa" fill-rule="evenodd"></path><path id="path1" d="M0.000 200.000 L 0.000 400.000 59.861 400.000 L 119.722 400.000 119.444 384.100 C 119.291 375.355,118.907 346.600,118.592 320.200 C 118.277 293.800,117.829 256.720,117.597 237.800 C 117.365 218.880,117.136 200.070,117.088 196.000 L 117.000 188.600 115.600 188.666 C 114.830 188.703,112.760 188.927,111.000 189.165 C 109.240 189.403,106.180 189.796,104.200 190.040 C 99.209 190.653,95.955 191.064,92.100 191.568 C 90.285 191.806,87.315 192.185,85.500 192.411 C 82.025 192.845,78.571 193.301,73.600 193.985 C 65.466 195.103,64.093 195.045,60.700 193.435 L 57.600 191.964 57.600 179.973 L 57.600 167.983 58.500 167.618 C 58.995 167.417,61.830 166.954,64.800 166.588 C 67.770 166.222,71.370 165.774,72.800 165.592 C 74.230 165.411,77.740 164.975,80.600 164.624 C 83.460 164.273,86.970 163.813,88.400 163.602 C 89.830 163.391,92.530 163.024,94.400 162.785 C 100.554 161.999,103.764 161.576,106.400 161.203 C 107.830 161.001,110.620 160.616,112.600 160.347 C 117.129 159.732,116.776 160.735,116.581 149.018 C 116.490 143.508,116.318 131.123,116.200 121.495 L 115.984 103.990 116.892 103.599 C 117.391 103.384,119.675 102.937,121.967 102.605 L 126.134 102.001 129.167 103.670 C 130.835 104.588,133.145 105.848,134.300 106.470 C 135.455 107.091,137.345 108.115,138.500 108.745 C 139.655 109.375,141.860 110.567,143.400 111.394 C 149.026 114.415,151.445 115.730,153.537 116.903 L 155.673 118.101 155.537 136.350 L 155.400 154.600 157.000 154.495 C 157.880 154.437,159.995 154.212,161.700 153.995 C 170.054 152.930,171.594 152.725,174.100 152.341 L 176.800 151.928 176.598 138.464 C 176.128 107.139,175.961 96.851,175.521 72.000 C 175.266 57.590,175.045 42.215,175.029 37.833 L 175.000 29.867 177.000 29.373 C 180.142 28.597,183.721 28.000,185.225 28.000 C 186.487 28.000,196.234 33.585,205.894 39.843 C 207.045 40.590,208.170 41.200,208.394 41.200 C 208.617 41.200,208.800 41.380,208.800 41.600 C 208.800 41.820,208.990 42.000,209.222 42.000 C 209.454 42.000,210.714 42.727,212.022 43.615 L 214.400 45.230 214.400 96.223 L 214.400 147.215 215.300 147.028 C 215.795 146.925,218.090 146.639,220.400 146.392 C 222.710 146.145,225.355 145.776,226.277 145.571 C 227.200 145.367,228.539 145.200,229.253 145.200 C 229.967 145.200,231.553 145.020,232.776 144.800 C 233.999 144.581,236.064 144.294,237.365 144.163 L 239.730 143.926 239.379 121.863 C 239.186 109.728,239.022 97.197,239.014 94.016 C 238.997 87.138,238.567 87.636,245.438 86.584 L 249.875 85.905 251.638 86.896 C 252.607 87.441,254.075 88.272,254.900 88.743 C 255.725 89.215,257.075 89.979,257.900 90.443 C 258.725 90.906,259.580 91.427,259.800 91.600 C 260.020 91.773,260.875 92.294,261.700 92.757 C 263.657 93.857,265.383 94.844,267.600 96.134 C 268.590 96.709,270.885 98.027,272.700 99.062 L 276.000 100.943 276.000 119.917 L 276.000 138.890 278.700 138.675 C 280.185 138.557,282.750 138.272,284.400 138.042 C 286.050 137.813,288.840 137.446,290.600 137.228 C 292.360 137.009,295.060 136.658,296.600 136.447 C 300.174 135.958,316.731 133.816,324.800 132.800 C 328.210 132.370,332.260 131.820,333.800 131.578 L 336.600 131.137 339.400 132.677 L 342.200 134.218 342.200 146.780 L 342.200 159.342 341.000 159.666 C 340.340 159.845,338.270 160.166,336.400 160.381 C 334.530 160.596,331.650 160.953,330.000 161.174 C 328.350 161.395,325.470 161.767,323.600 162.000 C 317.923 162.709,315.053 163.075,303.600 164.552 C 284.912 166.962,276.712 168.000,276.349 168.000 C 276.151 168.000,276.000 218.351,276.000 284.000 L 276.000 400.000 338.000 400.000 L 400.000 400.000 400.000 200.000 L 400.000 0.000 200.000 0.000 L 0.000 0.000 0.000 200.000 M236.706 173.027 C 236.581 173.153,234.796 173.441,232.739 173.668 C 230.683 173.896,227.830 174.231,226.400 174.414 C 224.970 174.597,222.360 174.929,220.600 175.152 C 218.840 175.374,216.640 175.679,215.711 175.829 L 214.023 176.102 213.904 188.151 C 213.839 194.778,213.746 221.620,213.698 247.800 C 213.650 273.980,213.489 318.935,213.340 347.700 L 213.070 400.000 228.798 400.000 L 244.526 400.000 244.233 380.700 C 243.923 360.290,243.511 336.985,242.812 300.200 C 241.981 256.455,241.603 235.930,241.237 214.600 C 241.033 202.720,240.733 188.455,240.571 182.900 L 240.275 172.800 238.604 172.800 C 237.685 172.800,236.831 172.902,236.706 173.027 M174.367 180.959 C 174.275 181.047,170.420 181.588,165.800 182.162 C 161.180 182.735,156.840 183.297,156.157 183.410 L 154.913 183.615 154.645 207.708 C 154.191 248.587,153.425 325.657,152.981 375.100 L 152.757 400.000 166.793 400.000 L 180.829 400.000 180.592 375.900 C 180.461 362.645,180.185 347.780,179.977 342.867 C 179.770 337.954,179.600 328.326,179.600 321.472 C 179.600 314.618,179.427 301.627,179.215 292.605 C 178.782 274.117,178.557 260.717,178.015 221.000 C 177.807 205.820,177.514 190.565,177.363 187.100 L 177.089 180.800 175.811 180.800 C 175.108 180.800,174.458 180.872,174.367 180.959 " stroke="none" fill="#040404" fill-rule="evenodd"></path><path id="path2" d="M182.000 28.400 L 181.000 28.720 182.000 28.720 C 182.550 28.720,183.450 28.576,184.000 28.400 L 185.000 28.080 184.000 28.080 C 183.450 28.080,182.550 28.224,182.000 28.400 M187.000 28.611 C 187.440 28.969,188.340 29.526,189.000 29.850 C 190.122 30.401,190.148 30.397,189.400 29.789 C 188.960 29.431,188.060 28.874,187.400 28.550 C 186.278 27.999,186.252 28.003,187.000 28.611 M177.400 29.200 L 176.600 29.544 177.400 29.525 C 177.840 29.514,178.740 29.368,179.400 29.200 L 180.600 28.895 179.400 28.875 C 178.740 28.865,177.840 29.011,177.400 29.200 M175.067 29.867 C 174.727 30.207,174.804 42.539,175.190 49.600 C 175.365 52.805,175.402 49.985,175.280 42.663 C 175.107 32.330,175.165 30.267,175.637 29.969 C 175.947 29.773,176.005 29.609,175.767 29.606 C 175.528 29.603,175.213 29.720,175.067 29.867 M190.400 30.514 C 190.400 30.755,193.506 32.800,193.871 32.800 C 194.030 32.800,193.989 32.649,193.780 32.464 C 193.152 31.908,190.400 30.321,190.400 30.514 M194.400 32.930 C 194.400 33.052,195.975 34.120,197.900 35.303 C 202.521 38.144,202.400 38.076,202.400 37.854 C 202.400 37.747,201.044 36.837,199.387 35.831 C 197.730 34.825,195.930 33.711,195.387 33.355 C 194.844 32.999,194.400 32.808,194.400 32.930 M202.800 38.135 C 202.800 38.237,203.401 38.675,204.135 39.108 C 204.869 39.541,205.994 40.211,206.635 40.595 L 207.800 41.295 206.800 40.467 C 205.657 39.521,202.800 37.856,202.800 38.135 M209.200 42.190 C 209.200 42.294,209.785 42.665,210.500 43.014 L 211.800 43.648 210.800 42.833 C 209.837 42.048,209.200 41.792,209.200 42.190 M214.098 104.276 C 214.044 127.858,214.135 147.231,214.300 147.326 C 214.465 147.421,215.410 147.350,216.400 147.168 L 218.200 146.837 216.302 146.969 L 214.404 147.101 214.300 104.251 L 214.196 61.400 214.098 104.276 M175.649 80.033 C 175.676 84.745,175.827 91.120,175.985 94.200 C 176.148 97.371,176.190 93.727,176.081 85.800 C 175.976 78.100,175.824 71.725,175.745 71.633 C 175.665 71.542,175.622 75.322,175.649 80.033 M249.214 86.369 C 249.991 86.521,250.891 86.784,251.214 86.953 C 251.536 87.121,251.451 86.976,251.024 86.630 C 250.596 86.283,249.696 86.021,249.024 86.046 C 247.807 86.092,247.808 86.093,249.214 86.369 M239.614 87.909 L 238.738 88.617 239.136 102.009 L 239.533 115.400 239.340 101.940 C 239.126 87.085,238.964 88.032,241.800 87.564 L 243.400 87.300 241.944 87.250 C 241.083 87.220,240.132 87.489,239.614 87.909 M252.400 87.620 C 253.787 88.561,254.578 88.835,253.600 88.036 C 253.050 87.586,252.420 87.217,252.200 87.215 C 251.980 87.213,252.070 87.396,252.400 87.620 M254.800 88.990 C 254.800 89.094,255.385 89.465,256.100 89.814 L 257.400 90.448 256.400 89.633 C 255.437 88.848,254.800 88.592,254.800 88.990 M257.600 90.590 C 257.600 90.694,258.185 91.065,258.900 91.414 L 260.200 92.048 259.200 91.233 C 258.237 90.448,257.600 90.192,257.600 90.590 M264.400 94.590 C 264.400 94.694,264.985 95.065,265.700 95.414 L 267.000 96.048 266.000 95.233 C 265.037 94.448,264.400 94.192,264.400 94.590 M267.200 96.190 C 267.200 96.294,267.785 96.665,268.500 97.014 L 269.800 97.648 268.800 96.833 C 267.837 96.048,267.200 95.792,267.200 96.190 M270.000 97.779 C 270.000 97.889,270.540 98.259,271.200 98.600 C 271.860 98.941,272.400 99.131,272.400 99.021 C 272.400 98.911,271.860 98.541,271.200 98.200 C 270.540 97.859,270.000 97.669,270.000 97.779 M272.810 99.315 C 273.340 99.918,276.000 101.542,276.000 101.262 C 276.000 101.089,275.235 100.526,274.300 100.011 C 273.365 99.496,272.695 99.183,272.810 99.315 M176.142 103.400 C 176.141 105.380,176.208 106.240,176.292 105.312 C 176.376 104.384,176.377 102.764,176.295 101.712 C 176.212 100.660,176.143 101.420,176.142 103.400 M125.677 102.394 C 126.269 102.572,128.114 103.469,129.777 104.387 C 131.440 105.305,132.800 105.963,132.800 105.849 C 132.800 105.436,126.099 102.001,125.359 102.034 C 124.830 102.058,124.926 102.167,125.677 102.394 M119.905 103.083 C 120.402 103.179,121.122 103.175,121.505 103.075 C 121.887 102.975,121.480 102.896,120.600 102.901 C 119.720 102.905,119.407 102.987,119.905 103.083 M116.666 103.703 C 116.057 104.147,115.992 104.918,116.100 110.403 L 116.222 116.600 116.311 110.311 L 116.400 104.023 117.700 103.648 C 118.569 103.397,118.727 103.260,118.176 103.236 C 117.724 103.216,117.044 103.426,116.666 103.703 M134.800 106.990 C 134.800 107.094,135.385 107.465,136.100 107.814 L 137.400 108.448 136.400 107.633 C 135.437 106.848,134.800 106.592,134.800 106.990 M145.200 112.579 C 145.200 112.689,145.740 113.059,146.400 113.400 C 147.060 113.741,147.600 113.931,147.600 113.821 C 147.600 113.711,147.060 113.341,146.400 113.000 C 145.740 112.659,145.200 112.469,145.200 112.579 M149.600 114.987 C 149.600 115.097,150.500 115.643,151.600 116.200 C 152.700 116.757,153.600 117.123,153.600 117.013 C 153.600 116.903,152.700 116.357,151.600 115.800 C 150.500 115.243,149.600 114.877,149.600 114.987 M176.599 134.276 C 176.732 151.483,176.715 151.958,175.961 152.130 C 175.374 152.264,175.405 152.294,176.094 152.253 C 177.246 152.186,177.371 148.313,176.829 129.400 L 176.463 116.600 176.599 134.276 M154.539 117.751 C 155.246 118.320,155.265 119.137,154.983 136.772 L 154.688 155.199 157.244 154.944 C 160.536 154.614,160.923 154.278,157.800 154.460 L 155.400 154.600 155.537 136.334 L 155.674 118.068 154.737 117.612 C 153.870 117.190,153.855 117.200,154.539 117.751 M239.693 133.273 L 239.600 143.947 238.500 144.113 L 237.400 144.280 238.513 144.340 C 240.050 144.423,240.027 144.612,239.900 132.993 L 239.786 122.600 239.693 133.273 M116.578 140.200 C 116.578 147.020,116.632 149.866,116.699 146.525 C 116.766 143.184,116.766 137.604,116.699 134.125 C 116.633 130.646,116.578 133.380,116.578 140.200 M333.800 131.604 C 332.898 131.836,333.211 131.899,335.057 131.856 C 336.409 131.825,337.433 131.665,337.334 131.500 C 337.114 131.135,335.427 131.185,333.800 131.604 M327.800 132.400 L 326.200 132.686 327.600 132.696 C 328.370 132.701,329.540 132.568,330.200 132.400 C 331.828 131.986,330.113 131.986,327.800 132.400 M338.000 132.150 C 338.000 132.260,338.900 132.840,340.000 133.439 L 342.000 134.527 342.000 146.830 C 342.000 154.833,341.857 159.204,341.590 159.337 C 341.365 159.449,341.410 159.494,341.690 159.437 C 342.090 159.356,342.200 156.631,342.200 146.767 L 342.200 134.200 340.100 133.075 C 338.945 132.456,338.000 132.039,338.000 132.150 M321.400 133.200 C 320.053 133.441,319.990 133.491,321.000 133.514 C 321.660 133.529,323.010 133.397,324.000 133.220 C 325.615 132.933,325.656 132.901,324.400 132.907 C 323.630 132.911,322.280 133.042,321.400 133.200 M315.200 134.000 L 313.400 134.280 315.000 134.293 C 315.880 134.300,317.140 134.168,317.800 134.000 C 319.400 133.593,317.819 133.593,315.200 134.000 M308.305 135.083 C 308.802 135.179,309.522 135.175,309.905 135.075 C 310.287 134.975,309.880 134.896,309.000 134.901 C 308.120 134.905,307.807 134.987,308.305 135.083 M302.600 135.600 C 300.680 135.863,300.664 135.876,302.200 135.908 C 303.080 135.926,304.610 135.797,305.600 135.620 C 307.970 135.199,305.641 135.183,302.600 135.600 M295.900 136.682 C 296.395 136.778,297.205 136.778,297.700 136.682 C 298.195 136.587,297.790 136.509,296.800 136.509 C 295.810 136.509,295.405 136.587,295.900 136.682 M287.600 137.600 C 285.601 138.021,287.652 138.038,290.000 137.620 C 291.624 137.332,291.663 137.300,290.400 137.303 C 289.630 137.304,288.370 137.438,287.600 137.600 M281.600 138.407 C 280.979 138.611,281.509 138.651,283.000 138.512 C 284.320 138.389,285.475 138.224,285.567 138.144 C 285.889 137.865,282.588 138.084,281.600 138.407 M276.000 139.120 C 276.000 139.296,276.675 139.372,277.500 139.291 C 279.822 139.061,279.991 138.866,277.900 138.832 C 276.855 138.814,276.000 138.944,276.000 139.120 M232.400 144.821 C 231.752 145.042,232.245 145.080,233.800 144.931 C 235.120 144.804,236.275 144.632,236.367 144.550 C 236.690 144.259,233.386 144.484,232.400 144.821 M226.400 145.600 C 224.996 146.050,226.463 146.065,228.600 145.623 L 230.200 145.292 228.800 145.286 C 228.030 145.283,226.950 145.424,226.400 145.600 M220.200 146.400 C 218.839 146.644,218.779 146.692,219.800 146.720 C 220.460 146.739,221.720 146.605,222.600 146.423 C 224.693 145.990,222.602 145.970,220.200 146.400 M169.900 153.082 C 170.395 153.178,171.205 153.178,171.700 153.082 C 172.195 152.987,171.790 152.909,170.800 152.909 C 169.810 152.909,169.405 152.987,169.900 153.082 M161.600 154.021 C 160.699 154.224,161.197 154.259,163.000 154.119 C 164.540 153.999,165.875 153.834,165.967 153.751 C 166.252 153.492,163.071 153.689,161.600 154.021 M116.563 159.351 C 116.434 159.688,115.411 160.009,113.934 160.176 C 112.604 160.326,111.617 160.550,111.740 160.673 C 112.287 161.220,116.412 160.325,116.815 159.571 C 117.042 159.147,117.126 158.800,117.002 158.800 C 116.877 158.800,116.680 159.048,116.563 159.351 M336.600 160.000 C 335.239 160.244,335.179 160.292,336.200 160.320 C 336.860 160.339,338.120 160.205,339.000 160.023 C 341.093 159.590,339.002 159.570,336.600 160.000 M330.400 160.800 L 328.600 161.080 330.200 161.100 C 331.080 161.111,332.250 160.976,332.800 160.800 C 334.063 160.395,333.002 160.395,330.400 160.800 M106.400 161.221 C 105.752 161.442,106.245 161.480,107.800 161.331 C 109.120 161.204,110.275 161.032,110.367 160.950 C 110.690 160.659,107.386 160.884,106.400 161.221 M324.200 161.600 C 322.839 161.844,322.779 161.892,323.800 161.920 C 324.460 161.939,325.720 161.805,326.600 161.623 C 328.693 161.190,326.602 161.170,324.200 161.600 M100.600 162.000 C 98.937 162.423,100.574 162.442,102.600 162.023 C 103.945 161.745,104.009 161.692,103.000 161.693 C 102.340 161.694,101.260 161.832,100.600 162.000 M317.600 162.400 C 315.951 162.656,315.917 162.683,317.200 162.717 C 317.970 162.737,319.320 162.605,320.200 162.423 C 322.266 161.996,320.312 161.978,317.600 162.400 M94.200 162.800 C 92.434 163.249,94.445 163.269,96.600 162.823 L 98.200 162.492 96.800 162.493 C 96.030 162.494,94.860 162.632,94.200 162.800 M88.400 163.613 C 87.754 163.829,88.180 163.866,89.600 163.719 C 90.810 163.594,91.875 163.426,91.967 163.346 C 92.287 163.065,89.391 163.283,88.400 163.613 M310.700 163.482 C 311.195 163.578,312.005 163.578,312.500 163.482 C 312.995 163.387,312.590 163.309,311.600 163.309 C 310.610 163.309,310.205 163.387,310.700 163.482 M307.505 163.883 C 308.002 163.979,308.722 163.975,309.105 163.875 C 309.487 163.775,309.080 163.696,308.200 163.701 C 307.320 163.705,307.007 163.787,307.505 163.883 M81.800 164.400 L 80.200 164.686 81.800 164.696 C 82.680 164.701,83.940 164.568,84.600 164.400 L 85.800 164.095 84.600 164.104 C 83.940 164.109,82.680 164.242,81.800 164.400 M304.305 164.283 C 304.802 164.379,305.522 164.375,305.905 164.275 C 306.287 164.175,305.880 164.096,305.000 164.101 C 304.120 164.105,303.807 164.187,304.305 164.283 M301.300 164.676 C 301.685 164.776,302.315 164.776,302.700 164.676 C 303.085 164.575,302.770 164.493,302.000 164.493 C 301.230 164.493,300.915 164.575,301.300 164.676 M75.800 165.220 C 75.011 165.435,75.422 165.470,77.000 165.323 C 78.320 165.200,79.475 165.032,79.567 164.950 C 79.864 164.682,77.034 164.885,75.800 165.220 M297.900 165.082 C 298.395 165.178,299.205 165.178,299.700 165.082 C 300.195 164.987,299.790 164.909,298.800 164.909 C 297.810 164.909,297.405 164.987,297.900 165.082 M69.600 166.000 C 67.601 166.421,69.652 166.438,72.000 166.020 C 73.624 165.732,73.663 165.700,72.400 165.703 C 71.630 165.704,70.370 165.838,69.600 166.000 M289.800 166.000 C 288.453 166.241,288.390 166.291,289.400 166.314 C 290.060 166.329,291.410 166.197,292.400 166.020 C 294.015 165.733,294.056 165.701,292.800 165.707 C 292.030 165.711,290.680 165.842,289.800 166.000 M63.600 166.800 L 61.800 167.080 63.400 167.093 C 64.280 167.100,65.540 166.968,66.200 166.800 C 67.800 166.393,66.219 166.393,63.600 166.800 M285.505 166.683 C 286.002 166.779,286.722 166.775,287.105 166.675 C 287.487 166.575,287.080 166.496,286.200 166.501 C 285.320 166.505,285.007 166.587,285.505 166.683 M282.500 167.076 C 282.885 167.176,283.515 167.176,283.900 167.076 C 284.285 166.975,283.970 166.893,283.200 166.893 C 282.430 166.893,282.115 166.975,282.500 167.076 M58.270 167.700 C 57.375 168.355,57.413 192.055,58.310 192.237 C 58.591 192.294,58.636 192.249,58.410 192.137 C 58.144 192.005,58.000 187.743,58.000 179.974 L 58.000 168.015 58.900 167.823 C 59.395 167.718,60.160 167.555,60.600 167.462 C 61.108 167.355,60.954 167.276,60.176 167.246 C 59.504 167.221,58.646 167.425,58.270 167.700 M277.400 167.620 C 276.611 167.835,277.022 167.870,278.600 167.723 C 279.920 167.600,281.075 167.432,281.167 167.350 C 281.464 167.082,278.634 167.285,277.400 167.620 M239.100 172.689 L 240.400 172.851 240.456 178.125 C 240.487 181.026,240.645 187.090,240.807 191.600 C 241.027 197.704,241.054 196.375,240.913 186.400 C 240.702 171.481,240.820 172.377,239.076 172.464 L 237.800 172.528 239.100 172.689 M233.400 173.200 L 231.800 173.486 233.400 173.503 C 234.280 173.513,235.450 173.376,236.000 173.200 L 237.000 172.880 236.000 172.897 C 235.450 172.906,234.280 173.042,233.400 173.200 M227.200 174.000 L 225.800 174.295 227.200 174.307 C 227.970 174.315,229.050 174.176,229.600 174.000 L 230.600 173.680 229.600 173.693 C 229.050 173.700,227.970 173.838,227.200 174.000 M220.800 174.800 L 219.000 175.080 220.800 175.112 C 221.790 175.129,222.960 174.989,223.400 174.800 L 224.200 174.456 223.400 174.488 C 222.960 174.506,221.790 174.646,220.800 174.800 M215.000 175.551 L 213.800 175.808 213.791 187.604 L 213.782 199.400 213.897 187.700 L 214.012 176.000 215.106 175.960 C 215.708 175.938,216.650 175.776,217.200 175.600 L 218.200 175.280 217.200 175.287 C 216.650 175.291,215.660 175.410,215.000 175.551 M176.300 180.688 C 177.111 180.837,177.205 181.097,177.254 183.327 C 177.284 184.687,177.430 190.120,177.580 195.400 L 177.851 205.000 177.879 196.800 C 177.922 183.754,177.636 180.609,176.400 180.561 C 175.530 180.528,175.517 180.544,176.300 180.688 M167.600 181.621 C 166.699 181.824,167.197 181.859,169.000 181.719 C 170.540 181.599,171.875 181.434,171.967 181.351 C 172.252 181.092,169.071 181.289,167.600 181.621 M161.400 182.400 C 160.053 182.641,159.990 182.691,161.000 182.714 C 161.660 182.729,163.010 182.597,164.000 182.420 C 165.615 182.133,165.656 182.101,164.400 182.107 C 163.630 182.111,162.280 182.242,161.400 182.400 M157.105 183.083 C 157.602 183.179,158.322 183.175,158.705 183.075 C 159.087 182.975,158.680 182.896,157.800 182.901 C 156.920 182.905,156.607 182.987,157.105 183.083 M154.495 198.800 C 154.442 207.050,154.322 219.110,154.229 225.600 L 154.059 237.400 154.424 226.600 C 154.625 220.660,154.744 208.600,154.690 199.800 L 154.591 183.800 154.495 198.800 M111.200 188.800 L 109.400 189.080 111.200 189.112 C 112.190 189.129,113.360 188.989,113.800 188.800 L 114.600 188.456 113.800 188.488 C 113.360 188.506,112.190 188.646,111.200 188.800 M105.000 189.600 L 103.400 189.886 105.000 189.896 C 105.880 189.901,107.140 189.768,107.800 189.600 L 109.000 189.295 107.800 189.304 C 107.140 189.309,105.880 189.442,105.000 189.600 M98.800 190.400 L 97.400 190.695 98.800 190.707 C 99.570 190.715,100.650 190.576,101.200 190.400 L 102.200 190.080 101.200 190.093 C 100.650 190.100,99.570 190.238,98.800 190.400 M92.600 191.200 L 91.000 191.486 92.600 191.515 C 93.480 191.531,94.560 191.389,95.000 191.200 L 95.800 190.856 95.000 190.885 C 94.560 190.901,93.480 191.042,92.600 191.200 M86.000 192.000 C 84.629 192.289,84.625 192.295,85.800 192.324 C 86.460 192.341,87.720 192.205,88.600 192.023 L 90.200 191.692 88.800 191.699 C 88.030 191.702,86.770 191.838,86.000 192.000 M79.800 192.800 L 78.200 193.086 79.800 193.103 C 80.680 193.113,81.850 192.976,82.400 192.800 L 83.400 192.480 82.400 192.497 C 81.850 192.506,80.680 192.642,79.800 192.800 M60.800 193.389 C 60.800 193.706,63.700 194.833,63.928 194.605 C 64.041 194.492,64.035 194.400,63.916 194.400 C 63.796 194.400,63.046 194.128,62.249 193.795 C 61.452 193.462,60.800 193.279,60.800 193.389 M74.000 193.600 L 72.200 193.880 73.800 193.900 C 74.680 193.911,75.850 193.776,76.400 193.600 C 77.663 193.195,76.602 193.195,74.000 193.600 M67.400 194.400 C 66.053 194.641,65.990 194.691,67.000 194.714 C 67.660 194.729,69.010 194.597,70.000 194.420 C 71.615 194.133,71.656 194.101,70.400 194.107 C 69.630 194.111,68.280 194.242,67.400 194.400 M117.518 229.000 C 117.622 245.500,117.773 259.075,117.854 259.167 C 118.084 259.429,117.916 227.628,117.608 212.600 C 117.447 204.783,117.409 211.756,117.518 229.000 M241.327 219.600 C 241.317 225.650,241.433 232.760,241.584 235.400 L 241.860 240.200 241.878 233.400 C 241.888 229.660,241.773 222.550,241.622 217.600 L 241.346 208.600 241.327 219.600 M178.128 226.200 C 178.116 232.800,178.230 240.990,178.381 244.400 L 178.657 250.600 178.673 242.400 C 178.681 237.890,178.567 229.700,178.419 224.200 L 178.151 214.200 178.128 226.200 M213.394 283.600 C 213.394 311.650,213.442 323.125,213.500 309.100 C 213.558 295.075,213.558 272.125,213.500 258.100 C 213.442 244.075,213.394 255.550,213.394 283.600 M242.055 258.633 C 242.085 264.555,242.237 273.090,242.393 277.600 C 242.554 282.285,242.593 277.741,242.484 267.000 C 242.378 256.660,242.227 248.125,242.146 248.033 C 242.066 247.942,242.025 252.712,242.055 258.633 M178.542 254.200 C 178.541 256.180,178.608 257.040,178.692 256.112 C 178.776 255.184,178.777 253.564,178.695 252.512 C 178.612 251.460,178.543 252.220,178.542 254.200 M118.177 271.400 C 118.177 278.000,118.232 280.756,118.299 277.525 C 118.366 274.293,118.366 268.893,118.299 265.525 C 118.232 262.156,118.177 264.800,118.177 271.400 M153.400 294.000 C 153.236 309.859,153.192 322.925,153.302 323.035 C 153.412 323.145,153.636 310.259,153.800 294.400 C 153.964 278.541,154.008 265.475,153.898 265.365 C 153.788 265.255,153.564 278.141,153.400 294.000 M178.931 274.800 C 178.919 279.310,179.032 287.410,179.180 292.800 L 179.450 302.600 179.469 294.800 C 179.479 290.510,179.366 282.410,179.219 276.800 L 178.951 266.600 178.931 274.800 M118.584 301.400 C 118.584 311.300,118.636 315.293,118.700 310.273 C 118.763 305.253,118.763 297.153,118.700 292.273 C 118.636 287.393,118.584 291.500,118.584 301.400 M242.927 305.200 C 242.917 311.250,243.033 318.360,243.184 321.000 L 243.460 325.800 243.478 319.000 C 243.488 315.260,243.373 308.150,243.222 303.200 L 242.946 294.200 242.927 305.200 M179.723 323.800 C 179.709 330.620,179.824 338.720,179.979 341.800 L 180.261 347.400 180.279 340.000 C 180.288 335.930,180.173 327.830,180.022 322.000 L 179.748 311.400 179.723 323.800 M118.984 337.200 C 118.984 346.990,119.036 350.995,119.100 346.100 C 119.163 341.205,119.163 333.195,119.100 328.300 C 119.036 323.405,118.984 327.410,118.984 337.200 M212.991 367.400 C 212.991 385.440,213.040 392.762,213.100 383.670 C 213.160 374.579,213.160 359.819,213.100 350.870 C 213.040 341.922,212.991 349.360,212.991 367.400 M152.893 344.800 C 152.839 348.650,152.721 362.690,152.630 376.000 C 152.480 397.897,152.499 398.867,152.827 386.200 C 153.027 378.500,153.146 364.460,153.091 355.000 C 153.036 345.540,152.947 340.950,152.893 344.800 M243.730 347.800 C 243.720 351.980,243.833 359.180,243.982 363.800 L 244.251 372.200 244.273 365.400 C 244.285 361.660,244.172 354.460,244.021 349.400 L 243.747 340.200 243.730 347.800 M119.379 368.200 C 119.379 375.460,119.433 378.486,119.499 374.925 C 119.565 371.364,119.566 365.424,119.499 361.725 C 119.433 358.026,119.379 360.940,119.379 368.200 M180.532 372.000 C 180.522 376.290,180.634 384.390,180.781 390.000 L 181.049 400.200 181.069 392.200 C 181.079 387.800,180.967 379.700,180.819 374.200 L 180.551 364.200 180.532 372.000 M244.574 390.000 C 244.574 395.610,244.630 397.905,244.699 395.100 C 244.768 392.295,244.768 387.705,244.699 384.900 C 244.630 382.095,244.574 384.390,244.574 390.000 M119.751 395.600 C 119.751 398.130,119.816 399.165,119.896 397.900 C 119.975 396.635,119.975 394.565,119.896 393.300 C 119.816 392.035,119.751 393.070,119.751 395.600 " stroke="none" fill="#575757" fill-rule="evenodd"></path><path id="path3" d="M175.350 41.000 C 175.351 43.420,175.416 44.358,175.496 43.085 C 175.576 41.812,175.575 39.832,175.494 38.685 C 175.414 37.538,175.349 38.580,175.350 41.000 M214.169 53.600 C 214.169 58.110,214.227 59.955,214.298 57.700 C 214.370 55.445,214.370 51.755,214.298 49.500 C 214.227 47.245,214.169 49.090,214.169 53.600 M175.751 67.200 C 175.751 69.730,175.816 70.765,175.896 69.500 C 175.975 68.235,175.975 66.165,175.896 64.900 C 175.816 63.635,175.751 64.670,175.751 67.200 M176.148 85.600 C 176.148 87.910,176.214 88.855,176.295 87.700 C 176.376 86.545,176.376 84.655,176.295 83.500 C 176.214 82.345,176.148 83.290,176.148 85.600 M239.344 96.000 C 239.344 98.090,239.412 98.945,239.494 97.900 C 239.576 96.855,239.576 95.145,239.494 94.100 C 239.412 93.055,239.344 93.910,239.344 96.000 M275.785 120.200 C 275.785 130.540,275.836 134.827,275.900 129.728 C 275.963 124.628,275.963 116.168,275.900 110.928 C 275.837 105.687,275.785 109.860,275.785 120.200 M176.551 112.400 C 176.551 114.930,176.616 115.965,176.696 114.700 C 176.775 113.435,176.775 111.365,176.696 110.100 C 176.616 108.835,176.551 109.870,176.551 112.400 M239.746 119.000 C 239.747 121.200,239.814 122.049,239.895 120.887 C 239.976 119.724,239.976 117.924,239.893 116.887 C 239.811 115.849,239.745 116.800,239.746 119.000 M116.560 122.200 C 116.561 125.500,116.622 126.797,116.698 125.082 C 116.773 123.367,116.772 120.667,116.697 119.082 C 116.621 117.497,116.559 118.900,116.560 122.200 M154.965 128.200 C 154.966 132.160,155.026 133.726,155.098 131.680 C 155.171 129.634,155.171 126.394,155.098 124.480 C 155.024 122.566,154.965 124.240,154.965 128.200 M213.769 138.800 C 213.769 143.310,213.827 145.155,213.898 142.900 C 213.970 140.645,213.970 136.955,213.898 134.700 C 213.827 132.445,213.769 134.290,213.769 138.800 M240.128 141.200 C 240.128 142.630,240.201 143.215,240.289 142.500 C 240.378 141.785,240.378 140.615,240.289 139.900 C 240.201 139.185,240.128 139.770,240.128 141.200 M116.946 155.000 C 116.947 157.200,117.014 158.049,117.095 156.887 C 117.176 155.724,117.176 153.924,117.093 152.887 C 117.011 151.849,116.945 152.800,116.946 155.000 M275.785 168.100 C 275.681 168.375,275.641 220.710,275.698 284.400 L 275.800 400.200 276.000 283.900 C 276.110 219.935,276.149 167.600,276.087 167.600 C 276.026 167.600,275.889 167.825,275.785 168.100 M117.198 193.719 L 117.397 199.400 117.511 194.032 C 117.573 191.080,117.484 188.523,117.312 188.351 C 117.140 188.178,117.089 190.594,117.198 193.719 M213.383 215.800 C 213.383 225.260,213.436 229.073,213.500 224.273 C 213.564 219.473,213.563 211.733,213.499 207.073 C 213.436 202.413,213.383 206.340,213.383 215.800 M241.348 204.800 C 241.348 207.110,241.414 208.055,241.495 206.900 C 241.576 205.745,241.576 203.855,241.495 202.700 C 241.414 201.545,241.348 202.490,241.348 204.800 M178.151 210.000 C 178.151 212.530,178.216 213.565,178.296 212.300 C 178.375 211.035,178.375 208.965,178.296 207.700 C 178.216 206.435,178.151 207.470,178.151 210.000 M154.165 214.600 C 154.166 218.560,154.226 220.126,154.298 218.080 C 154.371 216.034,154.371 212.794,154.298 210.880 C 154.224 208.966,154.165 210.640,154.165 214.600 M117.760 217.400 C 117.761 220.700,117.822 221.997,117.898 220.282 C 117.973 218.567,117.972 215.867,117.897 214.282 C 117.821 212.697,117.759 214.100,117.760 217.400 M153.766 258.000 C 153.766 262.070,153.825 263.735,153.898 261.700 C 153.971 259.665,153.971 256.335,153.898 254.300 C 153.825 252.265,153.766 253.930,153.766 258.000 M178.951 262.400 C 178.951 264.930,179.016 265.965,179.096 264.700 C 179.175 263.435,179.175 261.365,179.096 260.100 C 179.016 258.835,178.951 259.870,178.951 262.400 M118.560 277.800 C 118.561 281.100,118.622 282.397,118.698 280.682 C 118.773 278.967,118.772 276.267,118.697 274.682 C 118.621 273.097,118.559 274.500,118.560 277.800 M179.351 280.400 C 179.351 282.930,179.416 283.965,179.496 282.700 C 179.575 281.435,179.575 279.365,179.496 278.100 C 179.416 276.835,179.351 277.870,179.351 280.400 M153.365 287.200 C 153.365 291.050,153.425 292.625,153.498 290.700 C 153.571 288.775,153.571 285.625,153.498 283.700 C 153.425 281.775,153.365 283.350,153.365 287.200 M242.946 290.600 C 242.947 292.800,243.014 293.649,243.095 292.487 C 243.176 291.324,243.176 289.524,243.093 288.487 C 243.011 287.449,242.945 288.400,242.946 290.600 M212.983 317.400 C 212.983 326.420,213.035 330.167,213.099 325.727 C 213.164 321.287,213.164 313.907,213.100 309.327 C 213.035 304.747,212.983 308.380,212.983 317.400 M179.751 307.200 C 179.751 309.730,179.816 310.765,179.896 309.500 C 179.975 308.235,179.975 306.165,179.896 304.900 C 179.816 303.635,179.751 304.670,179.751 307.200 M243.746 336.600 C 243.747 338.800,243.814 339.649,243.895 338.487 C 243.976 337.324,243.976 335.524,243.893 334.487 C 243.811 333.449,243.745 334.400,243.746 336.600 M119.361 349.200 C 119.361 352.610,119.422 354.005,119.497 352.300 C 119.572 350.595,119.572 347.805,119.497 346.100 C 119.422 344.395,119.361 345.790,119.361 349.200 M244.146 352.600 C 244.147 354.800,244.214 355.649,244.295 354.487 C 244.376 353.324,244.376 351.524,244.293 350.487 C 244.211 349.449,244.145 350.400,244.146 352.600 M180.550 360.200 C 180.551 362.620,180.616 363.558,180.696 362.285 C 180.776 361.012,180.775 359.032,180.694 357.885 C 180.614 356.738,180.549 357.780,180.550 360.200 M244.548 376.000 C 244.548 378.310,244.614 379.255,244.695 378.100 C 244.776 376.945,244.776 375.055,244.695 373.900 C 244.614 372.745,244.548 373.690,244.548 376.000 M180.950 377.800 C 180.951 380.220,181.016 381.158,181.096 379.885 C 181.176 378.612,181.175 376.632,181.094 375.485 C 181.014 374.338,180.949 375.380,180.950 377.800 M119.761 385.200 C 119.761 388.610,119.822 390.005,119.897 388.300 C 119.972 386.595,119.972 383.805,119.897 382.100 C 119.822 380.395,119.761 381.790,119.761 385.200 M244.893 398.800 C 244.893 399.570,244.975 399.885,245.076 399.500 C 245.176 399.115,245.176 398.485,245.076 398.100 C 244.975 397.715,244.893 398.030,244.893 398.800 " stroke="none" fill="#7c7c7c" fill-rule="evenodd"></path><path id="path4" d="M186.033 28.531 C 186.713 29.063,189.200 30.425,189.200 30.265 C 189.200 30.006,186.605 28.400,186.186 28.400 C 186.010 28.400,185.942 28.459,186.033 28.531 M175.467 30.267 C 175.320 30.413,175.230 31.988,175.268 33.767 L 175.335 37.000 175.581 33.600 C 175.850 29.873,175.850 29.883,175.467 30.267 M190.200 30.996 C 191.094 31.739,193.628 33.109,193.000 32.510 C 192.780 32.300,191.880 31.724,191.000 31.230 C 190.120 30.735,189.760 30.630,190.200 30.996 M194.800 33.779 C 194.800 33.889,195.340 34.259,196.000 34.600 C 196.660 34.941,197.200 35.131,197.200 35.021 C 197.200 34.911,196.660 34.541,196.000 34.200 C 195.340 33.859,194.800 33.669,194.800 33.779 M200.000 36.979 C 200.000 37.089,200.540 37.459,201.200 37.800 C 201.860 38.141,202.400 38.331,202.400 38.221 C 202.400 38.111,201.860 37.741,201.200 37.400 C 200.540 37.059,200.000 36.869,200.000 36.979 M175.779 50.000 C 175.779 57.150,175.833 60.075,175.899 56.500 C 175.966 52.925,175.966 47.075,175.899 43.500 C 175.833 39.925,175.779 42.850,175.779 50.000 M204.600 39.796 C 205.494 40.539,208.028 41.909,207.400 41.310 C 207.180 41.100,206.280 40.524,205.400 40.030 C 204.520 39.535,204.160 39.430,204.600 39.796 M208.600 42.207 C 209.040 42.566,209.760 43.035,210.200 43.251 L 211.000 43.644 210.200 42.993 C 209.760 42.634,209.040 42.165,208.600 41.949 L 207.800 41.556 208.600 42.207 M213.530 104.400 C 213.311 147.415,213.328 148.037,214.749 147.968 C 215.295 147.942,215.303 147.900,214.800 147.708 C 214.470 147.583,214.096 147.321,213.968 147.127 C 213.841 146.933,213.819 128.015,213.920 105.087 C 214.020 82.159,214.023 63.040,213.925 62.600 C 213.828 62.160,213.650 80.970,213.530 104.400 M176.154 76.800 C 176.154 79.550,176.218 80.675,176.296 79.300 C 176.374 77.925,176.374 75.675,176.296 74.300 C 176.218 72.925,176.154 74.050,176.154 76.800 M249.435 86.777 C 250.114 86.939,250.924 87.204,251.235 87.366 C 251.546 87.527,251.451 87.376,251.024 87.030 C 250.596 86.683,249.786 86.418,249.224 86.441 C 248.282 86.479,248.300 86.506,249.435 86.777 M244.800 87.200 C 243.433 87.488,243.428 87.495,244.600 87.519 C 245.260 87.533,246.160 87.389,246.600 87.200 C 247.562 86.787,246.764 86.787,244.800 87.200 M240.600 88.000 C 239.581 88.438,240.632 88.438,242.000 88.000 C 242.804 87.743,242.843 87.677,242.200 87.668 C 241.760 87.662,241.040 87.811,240.600 88.000 M252.000 87.779 C 252.000 87.889,252.540 88.259,253.200 88.600 C 253.860 88.941,254.400 89.131,254.400 89.021 C 254.400 88.911,253.860 88.541,253.200 88.200 C 252.540 87.859,252.000 87.669,252.000 87.779 M239.518 101.000 C 239.583 108.040,239.693 114.160,239.763 114.600 C 240.012 116.159,239.909 92.962,239.657 90.600 C 239.515 89.280,239.453 93.960,239.518 101.000 M254.800 89.379 C 254.800 89.489,255.340 89.859,256.000 90.200 C 256.660 90.541,257.200 90.731,257.200 90.621 C 257.200 90.511,256.660 90.141,256.000 89.800 C 255.340 89.459,254.800 89.269,254.800 89.379 M176.572 98.800 C 176.572 103.970,176.629 106.085,176.699 103.500 C 176.768 100.915,176.768 96.685,176.699 94.100 C 176.629 91.515,176.572 93.630,176.572 98.800 M258.366 91.477 C 259.649 92.437,264.000 94.896,264.000 94.661 C 264.000 94.488,262.071 93.324,258.800 91.524 C 257.604 90.866,257.541 90.859,258.366 91.477 M269.200 97.779 C 269.200 97.889,269.740 98.259,270.400 98.600 C 271.060 98.941,271.600 99.131,271.600 99.021 C 271.600 98.911,271.060 98.541,270.400 98.200 C 269.740 97.859,269.200 97.669,269.200 97.779 M272.000 99.379 C 272.000 99.489,272.540 99.859,273.200 100.200 C 273.860 100.541,274.400 100.731,274.400 100.621 C 274.400 100.511,273.860 100.141,273.200 99.800 C 272.540 99.459,272.000 99.269,272.000 99.379 M123.800 102.833 C 122.802 103.114,122.888 103.139,124.308 102.980 C 125.404 102.857,126.444 103.009,127.208 103.404 C 127.864 103.743,128.400 103.931,128.400 103.821 C 128.400 103.498,126.088 102.396,125.520 102.447 C 125.234 102.473,124.460 102.647,123.800 102.833 M118.600 103.600 L 117.400 103.905 118.600 103.913 C 119.260 103.917,120.250 103.776,120.800 103.600 L 121.800 103.280 120.800 103.287 C 120.250 103.291,119.260 103.432,118.600 103.600 M116.684 127.500 C 116.807 140.425,116.996 151.090,117.104 151.200 C 117.211 151.310,117.232 140.735,117.150 127.701 C 117.067 114.666,116.879 104.001,116.730 104.001 C 116.582 104.000,116.561 114.575,116.684 127.500 M130.400 104.979 C 130.400 105.089,130.940 105.459,131.600 105.800 C 132.260 106.141,132.800 106.331,132.800 106.221 C 132.800 106.111,132.260 105.741,131.600 105.400 C 130.940 105.059,130.400 104.869,130.400 104.979 M134.800 107.341 C 134.800 107.608,138.490 109.643,138.663 109.471 C 138.740 109.393,137.903 108.839,136.802 108.240 C 135.701 107.640,134.800 107.236,134.800 107.341 M139.200 109.784 C 139.200 109.894,139.920 110.351,140.800 110.800 C 141.680 111.249,142.400 111.526,142.400 111.416 C 142.400 111.306,141.680 110.849,140.800 110.400 C 139.920 109.951,139.200 109.674,139.200 109.784 M143.600 112.184 C 143.600 112.294,144.320 112.751,145.200 113.200 C 146.080 113.649,146.800 113.926,146.800 113.816 C 146.800 113.706,146.080 113.249,145.200 112.800 C 144.320 112.351,143.600 112.074,143.600 112.184 M148.000 114.584 C 148.000 114.694,148.720 115.151,149.600 115.600 C 150.480 116.049,151.200 116.326,151.200 116.216 C 151.200 116.106,150.480 115.649,149.600 115.200 C 148.720 114.751,148.000 114.474,148.000 114.584 M176.970 125.000 C 176.971 129.840,177.029 131.765,177.099 129.278 C 177.169 126.791,177.169 122.831,177.098 120.478 C 177.028 118.125,176.970 120.160,176.970 125.000 M153.875 117.851 C 154.360 118.265,154.829 119.225,154.926 120.000 C 155.096 121.350,155.100 121.344,155.051 119.846 C 155.012 118.643,154.773 118.156,154.000 117.696 L 153.000 117.102 153.875 117.851 M240.142 133.469 C 240.174 139.448,240.316 144.128,240.457 143.869 C 240.599 143.611,240.573 138.720,240.400 133.000 L 240.085 122.600 240.142 133.469 M331.000 132.420 C 330.211 132.635,330.622 132.670,332.200 132.523 C 333.520 132.400,334.675 132.232,334.767 132.150 C 335.064 131.882,332.234 132.085,331.000 132.420 M337.200 132.179 C 337.200 132.289,337.740 132.659,338.400 133.000 C 339.060 133.341,339.600 133.531,339.600 133.421 C 339.600 133.311,339.060 132.941,338.400 132.600 C 337.740 132.259,337.200 132.069,337.200 132.179 M324.100 133.476 C 324.485 133.576,325.115 133.576,325.500 133.476 C 325.885 133.375,325.570 133.293,324.800 133.293 C 324.030 133.293,323.715 133.375,324.100 133.476 M318.800 134.000 C 317.738 134.224,317.641 134.302,318.400 134.324 C 318.950 134.341,320.120 134.205,321.000 134.023 C 322.334 133.747,322.400 133.693,321.400 133.699 C 320.740 133.702,319.570 133.838,318.800 134.000 M340.712 134.319 L 341.623 135.021 341.512 147.111 C 341.450 153.760,341.535 159.200,341.700 159.200 C 341.865 159.200,342.000 153.738,342.000 147.062 C 342.000 134.374,341.890 133.567,340.169 133.609 C 339.966 133.614,340.210 133.934,340.712 134.319 M177.292 143.269 L 177.200 152.339 175.100 152.756 L 173.000 153.172 174.984 152.982 C 177.734 152.719,177.628 153.131,177.500 143.172 L 177.384 134.200 177.292 143.269 M312.600 134.820 C 311.811 135.035,312.222 135.070,313.800 134.923 C 315.120 134.800,316.275 134.632,316.367 134.550 C 316.664 134.282,313.834 134.485,312.600 134.820 M154.493 145.113 C 154.388 156.557,154.192 155.933,157.677 155.256 L 159.800 154.845 157.307 155.061 L 154.814 155.277 154.700 145.138 L 154.586 135.000 154.493 145.113 M306.600 135.600 L 305.000 135.886 306.400 135.903 C 307.170 135.913,308.250 135.776,308.800 135.600 C 310.085 135.188,308.899 135.188,306.600 135.600 M300.400 136.400 C 299.338 136.624,299.241 136.702,300.000 136.724 C 300.550 136.741,301.720 136.605,302.600 136.423 C 303.934 136.147,304.000 136.093,303.000 136.099 C 302.340 136.102,301.170 136.238,300.400 136.400 M294.000 137.200 L 292.600 137.495 294.000 137.500 C 294.770 137.503,295.940 137.368,296.600 137.200 L 297.800 136.895 296.600 136.900 C 295.940 136.903,294.770 137.038,294.000 137.200 M288.200 138.000 L 286.600 138.286 288.000 138.296 C 288.770 138.301,289.940 138.168,290.600 138.000 C 292.228 137.586,290.513 137.586,288.200 138.000 M282.000 138.800 C 280.938 139.024,280.841 139.102,281.600 139.124 C 282.150 139.141,283.320 139.005,284.200 138.823 C 285.534 138.547,285.600 138.493,284.600 138.499 C 283.940 138.502,282.770 138.638,282.000 138.800 M275.632 139.113 C 275.585 139.861,276.432 140.052,277.800 139.601 C 278.961 139.218,278.953 139.212,277.537 139.414 C 276.559 139.553,276.006 139.453,275.869 139.111 C 275.702 138.697,275.657 138.697,275.632 139.113 M237.700 144.676 C 238.085 144.776,238.715 144.776,239.100 144.676 C 239.485 144.575,239.170 144.493,238.400 144.493 C 237.630 144.493,237.315 144.575,237.700 144.676 M231.700 145.476 C 232.085 145.576,232.715 145.576,233.100 145.476 C 233.485 145.375,233.170 145.293,232.400 145.293 C 231.630 145.293,231.315 145.375,231.700 145.476 M225.505 146.283 C 226.002 146.379,226.722 146.375,227.105 146.275 C 227.487 146.175,227.080 146.096,226.200 146.101 C 225.320 146.105,225.007 146.187,225.505 146.283 M219.300 147.076 C 219.685 147.176,220.315 147.176,220.700 147.076 C 221.085 146.975,220.770 146.893,220.000 146.893 C 219.230 146.893,218.915 146.975,219.300 147.076 M216.500 147.476 C 216.885 147.576,217.515 147.576,217.900 147.476 C 218.285 147.375,217.970 147.293,217.200 147.293 C 216.430 147.293,216.115 147.375,216.500 147.476 M168.200 153.600 L 166.600 153.886 168.000 153.896 C 168.770 153.901,169.940 153.768,170.600 153.600 C 172.228 153.186,170.513 153.186,168.200 153.600 M162.200 154.400 L 160.600 154.686 162.000 154.696 C 162.770 154.701,163.940 154.568,164.600 154.400 C 166.228 153.986,164.513 153.986,162.200 154.400 M336.400 159.607 C 335.779 159.811,336.309 159.851,337.800 159.712 C 339.120 159.589,340.275 159.424,340.367 159.344 C 340.689 159.065,337.388 159.284,336.400 159.607 M115.600 160.400 C 114.776 160.664,114.741 160.726,115.400 160.754 C 115.840 160.773,116.470 160.613,116.800 160.400 C 117.501 159.947,117.014 159.947,115.600 160.400 M330.000 160.400 C 328.629 160.689,328.625 160.695,329.800 160.724 C 330.460 160.741,331.720 160.605,332.600 160.423 L 334.200 160.092 332.800 160.099 C 332.030 160.102,330.770 160.238,330.000 160.400 M111.900 161.082 C 112.395 161.178,113.205 161.178,113.700 161.082 C 114.195 160.987,113.790 160.909,112.800 160.909 C 111.810 160.909,111.405 160.987,111.900 161.082 M323.800 161.220 C 323.011 161.435,323.422 161.470,325.000 161.323 C 326.320 161.200,327.475 161.032,327.567 160.950 C 327.864 160.682,325.034 160.885,323.800 161.220 M108.900 161.476 C 109.285 161.576,109.915 161.576,110.300 161.476 C 110.685 161.375,110.370 161.293,109.600 161.293 C 108.830 161.293,108.515 161.375,108.900 161.476 M105.905 161.883 C 106.402 161.979,107.122 161.975,107.505 161.875 C 107.887 161.775,107.480 161.696,106.600 161.701 C 105.720 161.705,105.407 161.787,105.905 161.883 M317.800 162.020 C 317.011 162.235,317.422 162.270,319.000 162.123 C 320.320 162.000,321.475 161.832,321.567 161.750 C 321.864 161.482,319.034 161.685,317.800 162.020 M99.500 162.682 C 99.995 162.778,100.805 162.778,101.300 162.682 C 101.795 162.587,101.390 162.509,100.400 162.509 C 99.410 162.509,99.005 162.587,99.500 162.682 M311.400 162.800 L 309.800 163.086 311.200 163.096 C 311.970 163.101,313.140 162.968,313.800 162.800 C 315.428 162.386,313.713 162.386,311.400 162.800 M93.300 163.476 C 93.685 163.576,94.315 163.576,94.700 163.476 C 95.085 163.375,94.770 163.293,94.000 163.293 C 93.230 163.293,92.915 163.375,93.300 163.476 M305.000 163.620 C 304.211 163.835,304.622 163.870,306.200 163.723 C 307.520 163.600,308.675 163.432,308.767 163.350 C 309.064 163.082,306.234 163.285,305.000 163.620 M90.500 163.876 C 90.885 163.976,91.515 163.976,91.900 163.876 C 92.285 163.775,91.970 163.693,91.200 163.693 C 90.430 163.693,90.115 163.775,90.500 163.876 M87.105 164.283 C 87.602 164.379,88.322 164.375,88.705 164.275 C 89.087 164.175,88.680 164.096,87.800 164.101 C 86.920 164.105,86.607 164.187,87.105 164.283 M298.800 164.400 C 297.738 164.624,297.641 164.702,298.400 164.724 C 298.950 164.741,300.120 164.605,301.000 164.423 C 302.334 164.147,302.400 164.093,301.400 164.099 C 300.740 164.102,299.570 164.238,298.800 164.400 M79.200 165.200 C 77.201 165.621,79.252 165.638,81.600 165.220 C 83.224 164.932,83.263 164.900,82.000 164.903 C 81.230 164.904,79.970 165.038,79.200 165.200 M292.600 165.200 C 291.239 165.444,291.179 165.492,292.200 165.520 C 292.860 165.539,294.120 165.405,295.000 165.223 C 297.093 164.790,295.002 164.770,292.600 165.200 M73.000 166.000 C 71.639 166.244,71.579 166.292,72.600 166.320 C 73.260 166.339,74.520 166.205,75.400 166.023 C 77.493 165.590,75.402 165.570,73.000 166.000 M286.200 166.015 C 285.444 166.218,285.962 166.254,287.600 166.115 C 289.030 165.993,290.275 165.828,290.367 165.747 C 290.670 165.480,287.422 165.689,286.200 166.015 M67.000 166.820 C 66.211 167.035,66.622 167.070,68.200 166.923 C 69.520 166.800,70.675 166.632,70.767 166.550 C 71.064 166.282,68.234 166.485,67.000 166.820 M279.105 167.083 C 279.602 167.179,280.322 167.175,280.705 167.075 C 281.087 166.975,280.680 166.896,279.800 166.901 C 278.920 166.905,278.607 166.987,279.105 167.083 M60.800 167.600 C 59.738 167.824,59.641 167.902,60.400 167.924 C 60.950 167.941,62.120 167.805,63.000 167.623 C 64.334 167.347,64.400 167.293,63.400 167.299 C 62.740 167.302,61.570 167.438,60.800 167.600 M238.705 172.283 C 239.202 172.379,239.922 172.375,240.305 172.275 C 240.687 172.175,240.280 172.096,239.400 172.101 C 238.520 172.105,238.207 172.187,238.705 172.283 M235.105 172.683 C 235.602 172.779,236.322 172.775,236.705 172.675 C 237.087 172.575,236.680 172.496,235.800 172.501 C 234.920 172.505,234.607 172.587,235.105 172.683 M241.110 186.600 C 241.217 194.300,241.371 200.675,241.453 200.767 C 241.687 201.031,241.518 186.449,241.202 179.200 C 241.029 175.226,240.993 178.170,241.110 186.600 M228.700 173.482 C 229.195 173.578,230.005 173.578,230.500 173.482 C 230.995 173.387,230.590 173.309,229.600 173.309 C 228.610 173.309,228.205 173.387,228.700 173.482 M222.500 174.276 C 222.885 174.376,223.515 174.376,223.900 174.276 C 224.285 174.175,223.970 174.093,223.200 174.093 C 222.430 174.093,222.115 174.175,222.500 174.276 M219.700 174.676 C 220.085 174.776,220.715 174.776,221.100 174.676 C 221.485 174.575,221.170 174.493,220.400 174.493 C 219.630 174.493,219.315 174.575,219.700 174.676 M214.300 175.265 L 213.200 175.667 213.294 187.333 L 213.387 199.000 213.500 187.614 C 213.625 175.027,213.477 175.645,216.459 175.211 C 218.388 174.931,218.442 174.898,217.000 174.881 C 216.120 174.871,214.905 175.044,214.300 175.265 M176.675 180.259 C 177.157 180.364,177.642 180.753,177.752 181.125 C 177.898 181.611,177.931 181.576,177.873 181.000 C 177.818 180.457,177.472 180.179,176.796 180.134 C 175.961 180.080,175.942 180.100,176.675 180.259 M170.600 180.800 L 169.400 181.105 170.600 181.105 C 171.260 181.105,172.340 180.968,173.000 180.800 L 174.200 180.495 173.000 180.495 C 172.340 180.495,171.260 180.632,170.600 180.800 M164.400 181.600 C 163.338 181.824,163.241 181.902,164.000 181.924 C 164.550 181.941,165.720 181.805,166.600 181.623 C 167.934 181.347,168.000 181.293,167.000 181.299 C 166.340 181.302,165.170 181.438,164.400 181.600 M158.200 182.420 C 157.411 182.635,157.822 182.670,159.400 182.523 C 160.720 182.400,161.875 182.232,161.967 182.150 C 162.264 181.882,159.434 182.085,158.200 182.420 M177.728 184.400 C 177.728 185.830,177.801 186.415,177.889 185.700 C 177.978 184.985,177.978 183.815,177.889 183.100 C 177.801 182.385,177.728 182.970,177.728 184.400 M154.196 183.700 C 154.075 184.195,154.029 189.820,154.094 196.200 L 154.213 207.800 154.306 195.780 C 154.374 187.073,154.532 183.628,154.880 183.280 C 155.245 182.915,155.247 182.800,154.888 182.800 C 154.628 182.800,154.316 183.205,154.196 183.700 M178.172 196.400 C 178.172 201.570,178.229 203.685,178.299 201.100 C 178.368 198.515,178.368 194.285,178.299 191.700 C 178.229 189.115,178.172 191.230,178.172 196.400 M116.900 188.032 C 117.538 188.404,117.608 189.477,117.694 200.120 L 117.787 211.800 117.900 200.248 C 118.012 188.733,117.898 187.579,116.651 187.612 C 116.403 187.619,116.515 187.808,116.900 188.032 M113.105 188.283 C 113.602 188.379,114.322 188.375,114.705 188.275 C 115.087 188.175,114.680 188.096,113.800 188.101 C 112.920 188.105,112.607 188.187,113.105 188.283 M110.100 188.676 C 110.485 188.776,111.115 188.776,111.500 188.676 C 111.885 188.575,111.570 188.493,110.800 188.493 C 110.030 188.493,109.715 188.575,110.100 188.676 M106.705 189.083 C 107.202 189.179,107.922 189.175,108.305 189.075 C 108.687 188.975,108.280 188.896,107.400 188.901 C 106.520 188.905,106.207 188.987,106.705 189.083 M98.600 190.015 C 97.844 190.218,98.362 190.254,100.000 190.115 C 101.430 189.993,102.675 189.828,102.767 189.747 C 103.070 189.480,99.822 189.689,98.600 190.015 M92.400 190.800 C 90.401 191.221,92.452 191.238,94.800 190.820 C 96.424 190.532,96.463 190.500,95.200 190.503 C 94.430 190.504,93.170 190.638,92.400 190.800 M58.744 191.976 C 59.264 192.429,59.879 192.800,60.111 192.800 C 60.603 192.800,60.579 192.780,59.000 191.855 L 57.800 191.153 58.744 191.976 M86.000 191.607 C 85.379 191.811,85.909 191.851,87.400 191.712 C 88.720 191.589,89.875 191.424,89.967 191.344 C 90.289 191.065,86.988 191.284,86.000 191.607 M80.000 192.407 C 79.379 192.611,79.909 192.651,81.400 192.512 C 82.720 192.389,83.875 192.224,83.967 192.144 C 84.289 191.865,80.988 192.084,80.000 192.407 M73.600 193.200 C 71.601 193.621,73.652 193.638,76.000 193.220 C 77.624 192.932,77.663 192.900,76.400 192.903 C 75.630 192.904,74.370 193.038,73.600 193.200 M67.200 194.007 C 66.579 194.211,67.109 194.251,68.600 194.112 C 69.920 193.989,71.075 193.824,71.167 193.744 C 71.489 193.465,68.188 193.684,67.200 194.007 M241.767 216.200 C 241.767 220.380,241.826 222.036,241.898 219.879 C 241.971 217.723,241.970 214.303,241.898 212.279 C 241.825 210.256,241.766 212.020,241.767 216.200 M178.570 222.600 C 178.571 227.440,178.629 229.365,178.699 226.878 C 178.769 224.391,178.769 220.431,178.698 218.078 C 178.628 215.725,178.570 217.760,178.570 222.600 M153.781 236.200 C 153.781 244.340,153.834 247.613,153.900 243.474 C 153.965 239.334,153.965 232.674,153.899 228.674 C 153.834 224.673,153.781 228.060,153.781 236.200 M118.052 240.233 C 118.081 249.455,118.223 260.420,118.367 264.600 C 118.512 268.780,118.554 261.310,118.461 248.000 C 118.368 234.690,118.226 223.725,118.146 223.633 C 118.066 223.542,118.023 231.012,118.052 240.233 M242.177 235.400 C 242.177 241.780,242.232 244.334,242.299 241.076 C 242.367 237.817,242.366 232.597,242.299 229.476 C 242.231 226.354,242.176 229.020,242.177 235.400 M178.979 245.000 C 178.979 252.260,179.033 255.286,179.099 251.725 C 179.165 248.164,179.166 242.224,179.099 238.525 C 179.033 234.826,178.979 237.740,178.979 245.000 M242.568 262.200 C 242.568 266.600,242.626 268.455,242.698 266.321 C 242.770 264.188,242.770 260.588,242.699 258.321 C 242.627 256.055,242.568 257.800,242.568 262.200 M179.371 267.200 C 179.371 272.150,179.428 274.175,179.499 271.700 C 179.569 269.225,179.569 265.175,179.499 262.700 C 179.428 260.225,179.371 262.250,179.371 267.200 M153.368 272.600 C 153.368 277.000,153.426 278.855,153.498 276.721 C 153.570 274.588,153.570 270.988,153.499 268.721 C 153.427 266.455,153.368 268.200,153.368 272.600 M212.666 292.500 C 212.386 320.070,212.297 400.250,212.547 399.967 C 212.711 399.781,213.198 266.400,213.035 266.400 C 212.978 266.400,212.812 278.145,212.666 292.500 M242.969 278.600 C 242.970 283.220,243.028 285.055,243.099 282.678 C 243.170 280.301,243.169 276.521,243.098 274.278 C 243.027 272.035,242.969 273.980,242.969 278.600 M179.771 294.000 C 179.771 298.950,179.828 300.975,179.899 298.500 C 179.969 296.025,179.969 291.975,179.899 289.500 C 179.828 287.025,179.771 289.050,179.771 294.000 M152.987 315.600 C 152.987 327.590,153.038 332.495,153.100 326.500 C 153.162 320.505,153.162 310.695,153.100 304.700 C 153.038 298.705,152.987 303.610,152.987 315.600 M243.367 302.200 C 243.367 306.380,243.426 308.036,243.498 305.879 C 243.571 303.723,243.570 300.303,243.498 298.279 C 243.425 296.256,243.366 298.020,243.367 302.200 M118.934 305.400 C 118.923 311.120,119.034 322.010,119.180 329.600 L 119.446 343.400 119.467 332.600 C 119.478 326.660,119.368 315.770,119.220 308.400 L 118.953 295.000 118.934 305.400 M243.777 321.400 C 243.777 327.780,243.832 330.334,243.899 327.076 C 243.967 323.817,243.966 318.597,243.899 315.476 C 243.831 312.354,243.776 315.020,243.777 321.400 M180.172 319.800 C 180.172 324.860,180.229 326.875,180.299 324.277 C 180.369 321.680,180.368 317.540,180.298 315.077 C 180.228 312.615,180.171 314.740,180.172 319.800 M180.579 343.000 C 180.579 350.260,180.633 353.286,180.699 349.725 C 180.765 346.164,180.766 340.224,180.699 336.525 C 180.633 332.826,180.579 335.740,180.579 343.000 M244.167 341.200 C 244.167 345.490,244.226 347.245,244.298 345.100 C 244.370 342.955,244.370 339.445,244.298 337.300 C 244.226 335.155,244.167 336.910,244.167 341.200 M152.581 351.800 C 152.580 359.720,152.634 363.017,152.699 359.126 C 152.765 355.235,152.765 348.755,152.700 344.726 C 152.634 340.697,152.581 343.880,152.581 351.800 M119.656 365.833 C 119.687 371.755,119.842 381.820,119.999 388.200 C 120.184 395.688,120.218 391.930,120.095 377.600 C 119.990 365.390,119.835 355.325,119.752 355.233 C 119.668 355.142,119.625 359.912,119.656 365.833 M180.970 365.000 C 180.971 369.840,181.029 371.765,181.099 369.278 C 181.169 366.791,181.169 362.831,181.098 360.478 C 181.028 358.125,180.970 360.160,180.970 365.000 M244.568 364.200 C 244.568 368.600,244.626 370.455,244.698 368.321 C 244.770 366.188,244.770 362.588,244.699 360.321 C 244.627 358.055,244.568 359.800,244.568 364.200 M244.972 388.600 C 244.972 393.660,245.029 395.675,245.099 393.077 C 245.169 390.480,245.168 386.340,245.098 383.877 C 245.028 381.415,244.971 383.540,244.972 388.600 M152.173 390.400 C 152.173 395.790,152.230 397.995,152.299 395.300 C 152.368 392.605,152.368 388.195,152.299 385.500 C 152.230 382.805,152.173 385.010,152.173 390.400 M181.371 391.200 C 181.371 396.150,181.428 398.175,181.499 395.700 C 181.569 393.225,181.569 389.175,181.499 386.700 C 181.428 384.225,181.371 386.250,181.371 391.200 " stroke="none" fill="#848484" fill-rule="evenodd"></path></g></svg>